<svg class="img-fluid" id="outputsvg" xmlns="http://www.w3.org/2000/svg" style="transform: none; transform-origin: 50% 50%; cursor: move;" width="25" height="25" viewBox="0 0 3240 3120"><g id="l2bm2tqinfpNl1DSJXsh0Uf" fill="rgb(31,31,31)" style="transform: none;opacity:0;"><g style="transform: none;"><path id="p1AsHwAmpm" d="M0 1560 l0 -1560 1620 0 1620 0 0 1560 0 1560 -1620 0 -1620 0 0 -1560z m1729 1396 c-2 -2 -121 -70 -264 -151 -143 -81 -289 -164 -325 -185 -36 -21 -107 -61 -157 -90 l-93 -52 0 -578 0 -578 -57 31 c-32 17 -60 34 -63 37 -3 4 -33 22 -67 40 l-63 33 0 573 c0 452 3 574 13 575 6 0 147 78 312 174 l300 173 234 1 c129 1 232 -1 230 -3z m348 -40 c32 -18 114 -66 183 -106 69 -40 181 -105 249 -144 113 -66 125 -75 148 -121 14 -27 29 -52 33 -55 4 -3 22 -34 40 -70 18 -36 36 -67 40 -70 4 -3 22 -34 40 -70 18 -36 38 -68 44 -72 7 -5 7 -8 0 -8 -5 0 -30 13 -55 28 -24 15 -91 55 -149 89 -58 33 -184 106 -280 163 -305 179 -306 180 -350 180 -39 0 -78 -13 -90 -30 -3 -4 -34 -22 -70 -40 -36 -18 -67 -36 -70 -40 -3 -4 -25 -18 -50 -30 -25 -12 -47 -26 -50 -29 -3 -4 -34 -22 -70 -40 -36 -19 -67 -37 -70 -41 -3 -4 -25 -18 -50 -30 -25 -12 -47 -26 -50 -29 -3 -4 -34 -22 -70 -41 -36 -18 -70 -39 -76 -45 -6 -6 -30 -19 -53 -29 -22 -11 -41 -23 -41 -28 0 -4 -9 -8 -20 -8 -11 0 -20 -4 -20 -8 0 -5 -18 -17 -40 -27 -23 -10 -50 -27 -62 -37 -12 -10 -25 -18 -30 -18 -5 0 -7 59 -6 132 l3 132 40 22 c22 13 45 27 51 32 6 6 31 20 55 32 24 13 46 25 49 29 3 3 14 11 25 17 89 48 111 60 115 65 3 4 25 17 50 29 25 12 47 26 50 30 3 4 34 22 70 41 36 18 67 36 70 40 3 3 25 17 50 29 25 12 47 26 50 30 3 4 24 17 47 29 23 11 44 25 48 31 3 5 15 10 26 10 10 0 19 4 19 8 0 5 19 17 41 28 23 10 47 23 53 30 9 8 63 41 73 44 0 0 27 -15 60 -34z m4 -460 c41 -24 139 -81 219 -128 169 -99 454 -267 590 -347 l95 -56 3 -350 2 -350 -122 -215 -123 -215 -3 508 c-1 311 -6 507 -12 507 -5 0 -69 37 -142 82 -262 160 -414 252 -483 291 -38 22 -101 58 -140 80 -38 22 -96 54 -127 72 -56 30 -57 32 -38 48 11 9 37 25 59 36 22 12 42 25 46 31 3 5 15 10 26 10 10 0 19 4 19 8 0 8 36 30 51 31 4 1 40 -19 80 -43z m-1328 -1243 c138 -82 295 -175 347 -205 106 -61 261 -152 330 -192 25 -14 40 -26 33 -26 -6 0 -18 -6 -25 -13 -7 -7 -42 -28 -78 -46 -36 -19 -67 -37 -70 -41 -3 -4 -15 -12 -27 -19 -19 -10 -38 -2 -155 67 -264 156 -732 431 -810 477 l-48 27 0 345 0 345 123 214 122 214 3 -498 2 -498 253 -151z m1617 619 c0 -5 23 -19 50 -32 28 -13 50 -27 50 -32 0 -4 9 -8 20 -8 11 0 20 -4 20 -8 0 -4 20 -18 45 -30 l45 -22 0 -573 0 -573 -37 -18 c-21 -10 -68 -35 -105 -57 -38 -21 -98 -56 -135 -77 -164 -94 -212 -121 -279 -161 l-71 -41 -228 2 -227 3 413 237 414 236 3 581 c1 376 6 581 12 581 6 0 10 -4 10 -8z m-154 -828 c7 -40 0 -189 -11 -216 -4 -9 -39 -34 -78 -54 -40 -20 -74 -40 -77 -44 -3 -4 -25 -18 -50 -30 -25 -12 -47 -26 -50 -29 -3 -4 -34 -22 -70 -40 -36 -19 -67 -37 -70 -41 -3 -4 -25 -18 -50 -30 -25 -12 -47 -26 -50 -29 -3 -4 -34 -22 -70 -40 -36 -19 -67 -37 -70 -41 -3 -4 -25 -18 -50 -30 -25 -12 -47 -26 -50 -29 -3 -4 -34 -22 -70 -40 -36 -19 -67 -37 -70 -41 -3 -4 -29 -19 -58 -34 l-53 -27 -92 54 c-102 61 -282 166 -428 250 -82 48 -98 62 -114 98 -11 23 -25 47 -31 54 -7 6 -26 38 -44 71 -66 124 -105 192 -119 208 -8 9 -12 18 -10 20 2 2 60 -29 129 -69 69 -40 169 -98 222 -129 99 -57 204 -117 380 -220 99 -57 144 -68 170 -42 8 7 34 24 59 36 24 13 46 26 49 30 3 4 34 22 70 41 36 18 67 36 70 40 3 3 25 17 50 29 25 12 47 26 50 30 3 4 25 18 50 30 25 12 47 26 50 30 3 3 25 17 50 31 25 13 47 27 50 30 3 4 25 17 50 29 25 12 47 26 50 30 3 4 34 22 70 40 36 18 67 36 70 40 3 4 24 17 47 29 23 11 44 25 48 31 3 5 15 10 25 10 14 0 21 -10 26 -36z"></path></g></g><g id="l60uANd8Ef5Xn2G16VYqs6w" fill="rgb(118,179,157)" style="transform: none;"><g style="transform: none;"><path id="pLSTV9AZU" d="M1975 2974 c-22 -12 -45 -27 -52 -33 -6 -6 -32 -21 -57 -33 -25 -12 -46 -26 -46 -30 0 -4 -9 -8 -19 -8 -11 0 -23 -5 -26 -10 -4 -6 -25 -20 -48 -31 -23 -12 -44 -25 -47 -29 -3 -4 -25 -18 -50 -30 -25 -12 -47 -26 -50 -29 -3 -4 -34 -22 -70 -40 -36 -19 -67 -37 -70 -41 -3 -4 -25 -18 -50 -30 -25 -12 -47 -25 -50 -29 -4 -5 -26 -17 -115 -65 -11 -6 -22 -14 -25 -17 -3 -4 -25 -16 -49 -29 -24 -12 -49 -26 -55 -32 -6 -5 -29 -19 -51 -32 l-40 -22 -3 -177 c-1 -97 0 -177 3 -177 11 0 95 44 95 50 0 4 23 17 50 30 28 13 50 27 50 32 0 4 9 8 20 8 11 0 20 4 20 8 0 5 19 17 41 28 23 10 47 23 53 29 6 6 40 27 76 45 36 19 67 37 70 41 3 3 25 17 50 29 25 12 47 26 50 30 3 4 34 22 70 41 36 18 67 36 70 40 3 3 25 17 50 29 25 12 47 26 50 30 3 4 34 22 69 40 36 17 71 38 78 46 8 8 25 17 38 20 25 6 33 2 335 -176 164 -96 264 -155 503 -294 87 -51 151 -82 121 -59 -6 4 -26 37 -44 73 -18 36 -36 67 -40 70 -4 3 -22 34 -40 70 -18 36 -36 67 -40 70 -4 3 -22 34 -40 69 -17 36 -37 70 -44 76 -6 7 -20 31 -31 54 -15 34 -32 50 -89 83 -93 54 -236 137 -366 213 -58 34 -130 75 -160 92 l-55 30 -40 -23z"></path><path id="pr96Ja2rj" d="M935 2815 c-165 -96 -306 -174 -312 -174 -10 -1 -13 -129 -13 -605 l0 -603 63 -33 c34 -18 64 -36 67 -40 3 -4 38 -24 78 -45 39 -20 75 -41 78 -46 21 -35 24 37 24 585 l0 594 93 52 c50 29 121 69 157 90 95 55 640 364 675 383 28 15 10 16 -290 16 l-320 -1 -300 -173z"></path><path id="piXU5wFBR" d="M1965 2528 c-22 -11 -41 -25 -43 -29 -2 -5 -12 -9 -22 -9 -10 0 -22 -5 -25 -10 -4 -6 -25 -20 -48 -31 -23 -12 -44 -25 -47 -29 -3 -4 -20 -15 -37 -24 -18 -9 -33 -21 -33 -26 0 -5 21 -21 48 -36 26 -15 76 -43 112 -64 36 -20 97 -55 135 -77 90 -51 382 -226 553 -331 73 -45 137 -82 142 -82 6 0 10 -213 10 -567 l0 -568 25 48 c14 26 84 149 155 274 l130 227 0 377 c0 289 -3 379 -12 387 -7 5 -91 55 -185 111 -95 56 -251 147 -345 203 -95 55 -226 132 -292 170 -65 37 -131 77 -146 88 -33 24 -26 24 -75 -2z"></path><path id="p1HrIPVEn8" d="M373 2228 l-153 -267 0 -374 0 -375 47 -27 c77 -45 512 -300 819 -481 78 -46 147 -84 153 -84 14 0 74 29 81 40 3 4 34 22 70 41 36 18 67 36 70 40 3 3 25 16 49 29 l44 22 -64 37 c-70 41 -210 123 -359 209 -52 30 -209 123 -347 205 l-253 151 -2 550 -3 551 -152 -267z"></path><path id="pwL8DPl98" d="M2318 1304 l-3 -596 -444 -254 c-244 -139 -453 -260 -465 -268 -19 -13 13 -15 288 -15 l310 -1 65 38 c66 39 157 91 284 164 37 21 97 56 135 77 37 22 84 47 105 57 l37 18 0 593 c0 326 1 596 3 600 1 4 -16 17 -38 29 -22 13 -45 27 -52 33 -7 6 -19 11 -28 11 -8 0 -15 4 -15 8 0 5 -19 17 -41 28 -23 10 -47 23 -53 29 -14 12 -72 45 -80 45 -3 0 -7 -268 -8 -596z"></path><path id="pIrQADsja" d="M2203 1098 c-13 -6 -23 -15 -23 -20 0 -4 -9 -8 -19 -8 -11 0 -23 -5 -26 -10 -4 -6 -25 -20 -48 -31 -23 -12 -44 -25 -47 -29 -3 -4 -34 -22 -70 -40 -36 -18 -67 -36 -70 -40 -3 -4 -25 -18 -50 -30 -25 -12 -47 -25 -50 -29 -3 -3 -25 -17 -50 -30 -25 -14 -47 -28 -50 -31 -3 -4 -25 -18 -50 -30 -25 -12 -47 -26 -50 -30 -3 -4 -25 -18 -50 -30 -25 -12 -47 -26 -50 -29 -3 -4 -34 -22 -70 -40 -36 -19 -67 -37 -70 -41 -3 -4 -25 -17 -49 -30 -25 -12 -51 -29 -59 -36 -12 -12 -18 -12 -45 4 -42 25 -192 112 -347 202 -69 40 -154 89 -190 110 -94 55 -297 172 -352 204 -27 15 -48 23 -48 17 0 -5 4 -11 9 -13 5 -2 25 -34 45 -73 21 -38 57 -104 81 -145 24 -41 58 -102 75 -134 18 -33 37 -65 44 -71 6 -7 20 -31 31 -54 16 -36 32 -50 114 -98 143 -83 325 -189 426 -249 117 -68 140 -77 158 -60 7 8 33 24 58 36 24 13 46 26 49 30 3 4 34 22 70 41 36 18 67 36 70 40 3 3 25 17 50 29 25 12 47 26 50 30 3 4 34 22 70 41 36 18 67 36 70 40 3 3 25 17 50 29 25 12 47 26 50 30 3 4 34 22 70 41 36 18 67 36 70 40 3 3 25 17 50 29 25 12 47 26 50 30 3 4 37 23 75 43 39 20 75 44 81 54 7 11 11 83 12 186 1 177 1 177 -45 155z"></path></g></g></svg>